<?xml version="1.0" encoding="UTF-8" standalone="no" ?>
<!DOCTYPE svg PUBLIC "-//W3C//DTD SVG 1.1//EN" "http://www.w3.org/Graphics/SVG/1.1/DTD/svg11.dtd">
<svg xmlns="http://www.w3.org/2000/svg" xmlns:xlink="http://www.w3.org/1999/xlink" version="1.1" width="1080" height="1080" viewBox="0 0 1080 1080" xml:space="preserve">
<desc>Created with Fabric.js 5.2.4</desc>
<defs>
</defs>
<g transform="matrix(1 0 0 1 540 540)" id="593ff7c3-5c83-4a49-91a7-c0a1b2216412"  >
<rect style="stroke: none; stroke-width: 1; stroke-dasharray: none; stroke-linecap: butt; stroke-dashoffset: 0; stroke-linejoin: miter; stroke-miterlimit: 4; fill: rgb(255,255,255); fill-rule: nonzero; opacity: 1; visibility: hidden;" vector-effect="non-scaling-stroke"  x="-540" y="-540" rx="0" ry="0" width="1080" height="1080" />
</g>
<g transform="matrix(1 0 0 1 540 540)" id="0609049e-1f6e-4392-896e-05303bede5ed"  >
</g>
<g transform="matrix(1 0 0 1 540 540)"  >
<g style="" vector-effect="non-scaling-stroke"   >
		<g transform="matrix(1.74 0 0 1.74 186.69 194.65)" id="XMLID_865_"  >
<path style="stroke: none; stroke-width: 1; stroke-dasharray: none; stroke-linecap: butt; stroke-dashoffset: 0; stroke-linejoin: miter; stroke-miterlimit: 4; fill: rgb(255,255,255); fill-rule: nonzero; opacity: 1;" vector-effect="non-scaling-stroke"  transform=" translate(-337.35, -341.93)" d="M 456.24 248.986 L 218.455 248.986 C 216.37900000000002 248.986 214.69500000000002 250.66899999999998 214.69500000000002 252.74599999999998 L 214.69500000000002 287.178 C 214.69500000000002 289.254 216.37800000000001 290.938 218.455 290.938 L 255.28500000000003 290.938 L 255.28500000000003 424.54 C 255.28500000000003 430.24800000000005 259.913 434.875 265.62 434.875 C 271.327 434.875 275.955 430.248 275.955 424.54 L 275.955 290.937 L 398.739 290.937 L 398.739 424.54 C 398.739 430.24800000000005 403.36699999999996 434.875 409.07399999999996 434.875 C 414.78099999999995 434.875 419.40899999999993 430.248 419.40899999999993 424.54 L 419.40899999999993 290.937 L 456.23999999999995 290.937 C 458.31699999999995 290.937 459.99999999999994 289.254 459.99999999999994 287.177 L 459.99999999999994 252.745 C 460 250.669 458.317 248.986 456.24 248.986 z" stroke-linecap="round" />
</g>
		<g transform="matrix(1.74 0 0 1.74 -117.55 -284.41)" id="XMLID_1036_"  >
<circle style="stroke: none; stroke-width: 1; stroke-dasharray: none; stroke-linecap: butt; stroke-dashoffset: 0; stroke-linejoin: miter; stroke-miterlimit: 4; fill: rgb(255,255,255); fill-rule: nonzero; opacity: 1;" vector-effect="non-scaling-stroke"  cx="0" cy="0" r="41.337" />
</g>
		<g transform="matrix(1.74 0 0 1.74 -109.62 80.1)" id="XMLID_1037_"  >
<path style="stroke: none; stroke-width: 1; stroke-dasharray: none; stroke-linecap: butt; stroke-dashoffset: 0; stroke-linejoin: miter; stroke-miterlimit: 4; fill: rgb(255,255,255); fill-rule: nonzero; opacity: 1;" vector-effect="non-scaling-stroke"  transform=" translate(-166.97, -276.06)" d="M 192.374 283.471 C 190.023 276.875 184.733 271.751 178.064 269.613 L 154.58499999999998 262.087 L 158.831 247.267 C 150.411 245.84799999999998 143.289 240.171 139.969 232.396 L 110.695 163.552 L 155.31199999999998 220.34199999999998 C 159.17499999999998 225.261 165.24999999999997 227.938 171.52399999999997 227.44099999999997 L 210.11899999999997 224.36999999999998 C 209.85299999999998 225.28499999999997 209.70399999999998 226.24999999999997 209.70399999999998 227.25099999999998 C 209.70399999999998 232.95899999999997 214.332 237.58599999999998 220.039 237.58599999999998 C 243.748 237.58599999999998 300.19599999999997 237.58599999999998 323.60299999999995 237.58599999999998 C 329.311 237.58599999999998 333.93799999999993 232.95899999999997 333.93799999999993 227.25099999999998 C 333.93799999999993 221.54299999999998 329.30999999999995 216.91599999999997 323.60299999999995 216.91599999999997 C 316.19499999999994 216.91599999999997 264.078 216.91599999999997 256.94599999999997 216.91599999999997 C 261.24399999999997 213.14899999999997 263.78499999999997 207.48599999999996 263.29699999999997 201.35099999999997 C 262.47599999999994 191.04099999999997 253.47199999999998 183.33799999999997 243.14199999999997 184.16699999999997 L 239.85099999999997 184.42899999999997 C 228.53099999999998 158.75699999999998 231.83299999999997 166.24499999999998 227.55799999999996 156.54999999999998 C 225.25399999999996 151.326 219.14999999999998 148.95999999999998 213.93199999999996 151.26299999999998 C 208.70899999999995 153.56599999999997 206.34199999999996 159.66699999999997 208.64399999999995 164.88899999999998 C 210.09299999999996 168.17499999999998 214.41399999999996 177.975 218.02499999999995 186.165 L 178.56199999999995 189.30499999999998 L 140.14899999999994 140.41199999999998 L 180.84799999999996 170.67399999999998 L 182.12799999999996 165.94799999999998 C 186.37599999999995 151.12199999999999 177.79999999999995 135.65999999999997 162.97499999999997 131.41299999999998 L 117.29699999999997 118.32599999999998 C 109.81199999999997 116.18099999999998 101.77099999999997 117.25999999999998 95.11499999999997 121.29999999999998 C 88.45899999999996 125.33999999999999 83.79299999999996 131.97699999999998 82.24099999999997 139.60699999999997 L 54.70099999999997 275.077 C 53.181999999999974 282.548 55.306999999999974 290.42 60.69899999999997 296.158 L 49.984 296.158 L 29.848 137.155 C 28.808 128.946 21.31 123.132 13.102 124.174 C 4.8919999999999995 125.21400000000001 -0.9190000000000005 132.711 0.12100000000000044 140.92000000000002 L 21.917 313.024 C 22.865000000000002 320.511 29.234 326.125 36.781000000000006 326.125 L 90.887 326.125 L 90.887 387.48 L 55.295 416.534 C 50.873000000000005 420.144 50.215 426.654 53.824 431.07599999999996 C 57.434 435.498 63.943 436.15599999999995 68.36699999999999 432.54699999999997 L 90.886 414.164 L 90.886 424.541 C 90.886 430.249 95.514 434.876 101.221 434.876 C 106.92800000000001 434.876 111.55600000000001 430.24899999999997 111.55600000000001 424.541 L 111.55600000000001 414.164 L 134.074 432.54699999999997 C 135.994 434.11299999999994 138.306 434.876 140.604 434.876 C 143.601 434.876 146.573 433.57899999999995 148.616 431.07599999999996 C 152.22600000000003 426.65399999999994 151.568 420.14399999999995 147.14600000000002 416.534 L 111.55600000000001 387.48 L 111.55600000000001 326.125 L 159.858 326.125 L 193.289 419.94 C 196.56699999999998 429.139 205.22299999999998 434.876 214.459 434.876 C 216.963 434.875 219.50900000000001 434.45399999999995 222.00300000000001 433.565 C 233.69500000000002 429.399 239.79500000000002 416.543 235.62800000000001 404.851 L 192.374 283.471 z" stroke-linecap="round" />
</g>
</g>
</g>
</svg>