<?xml version="1.0" encoding="UTF-8" standalone="no" ?>
<!DOCTYPE svg PUBLIC "-//W3C//DTD SVG 1.1//EN" "http://www.w3.org/Graphics/SVG/1.1/DTD/svg11.dtd">
<svg xmlns="http://www.w3.org/2000/svg" xmlns:xlink="http://www.w3.org/1999/xlink" version="1.1" width="1080" height="1080" viewBox="0 0 1080 1080" xml:space="preserve">
<desc>Created with Fabric.js 5.2.4</desc>
<defs>
</defs>
<g transform="matrix(1 0 0 1 540 540)" id="4e098eb0-89fb-483d-ac5c-d101f06875bc"  >
</g>
<g transform="matrix(1 0 0 1 540 540)" id="93d91534-702a-4d13-ba56-78e2510ad033"  >
<rect style="stroke: none; stroke-width: 1; stroke-dasharray: none; stroke-linecap: butt; stroke-dashoffset: 0; stroke-linejoin: miter; stroke-miterlimit: 4; fill: rgb(255,255,255); fill-rule: nonzero; opacity: 1; visibility: hidden;" vector-effect="non-scaling-stroke"  x="-540" y="-540" rx="0" ry="0" width="1080" height="1080" />
</g>
<g transform="matrix(1 0 0 1 540 540)"  >
<path style="stroke: rgb(0,0,0); stroke-width: 0; stroke-dasharray: none; stroke-linecap: butt; stroke-dashoffset: 0; stroke-linejoin: miter; stroke-miterlimit: 4; fill: rgb(0,0,0); fill-rule: nonzero; opacity: 1;" vector-effect="non-scaling-stroke"  transform=" translate(-231.02, -231.02)" d="M 457.83 158.441 C 457.80899999999997 158.413 457.79699999999997 158.383 457.77299999999997 158.354 L 407.58899999999994 95.87400000000002 C 407.0249999999999 95.17300000000003 406.3879999999999 94.56900000000002 405.7099999999999 94.02900000000002 C 403.5499999999999 91.46700000000003 400.3549999999999 89.80400000000003 396.74299999999994 89.80400000000003 L 65.292 89.80400000000003 C 61.677 89.80400000000003 58.488 91.46500000000003 56.327 94.02900000000002 C 55.649 94.56900000000003 55.010999999999996 95.16700000000003 54.442 95.87400000000002 L 4.264000000000003 158.354 C 4.241000000000003 158.383 4.230000000000003 158.413 4.2070000000000025 158.441 C 1.655 160.602 0 163.787 0 167.39 L 0 360.46 C 0 366.96 5.27 372.231 11.77 372.231 L 450.26599999999996 372.231 C 456.76599999999996 372.231 462.03599999999994 366.96 462.03599999999994 360.46 L 462.03599999999994 167.39 C 462.037 163.787 460.381 160.602 457.83 158.441 z M 408.516 134.615 L 425.389 155.62 L 408.516 155.62 L 408.516 134.615 z M 384.975 113.345 L 384.975 155.619 L 296.84 155.619 C 294.32599999999996 155.619 291.885 156.424 289.861 157.912 L 231.024 201.211 L 172.175 157.906 C 170.15200000000002 156.424 167.709 155.619 165.197 155.619 L 77.061 155.619 L 77.061 113.345 L 384.975 113.345 z M 53.523 155.62 L 36.65 155.62 L 53.522999999999996 134.615 L 53.522999999999996 155.62 z M 438.498 348.69 L 23.54 348.69 L 23.54 179.16 L 161.33599999999998 179.16 L 224.04699999999997 225.308 C 228.19699999999997 228.35399999999998 233.85199999999998 228.35999999999999 238.00099999999998 225.303 L 300.69899999999996 179.159 L 438.49799999999993 179.159 L 438.49799999999993 348.69 L 438.498 348.69 z" stroke-linecap="round" />
</g>
</svg>