<?xml version="1.0" encoding="UTF-8" standalone="no" ?>
<!DOCTYPE svg PUBLIC "-//W3C//DTD SVG 1.1//EN" "http://www.w3.org/Graphics/SVG/1.1/DTD/svg11.dtd">
<svg xmlns="http://www.w3.org/2000/svg" xmlns:xlink="http://www.w3.org/1999/xlink" version="1.1" width="1080" height="1080" viewBox="0 0 1080 1080" xml:space="preserve">
<desc>Created with Fabric.js 5.2.4</desc>
<defs>
</defs>
<g transform="matrix(1 0 0 1 540 540)" id="ae464927-2cfc-45b4-8133-095059d63c26"  >
<rect style="stroke: none; stroke-width: 1; stroke-dasharray: none; stroke-linecap: butt; stroke-dashoffset: 0; stroke-linejoin: miter; stroke-miterlimit: 4; fill: rgb(255,255,255); fill-rule: nonzero; opacity: 1; visibility: hidden;" vector-effect="non-scaling-stroke"  x="-540" y="-540" rx="0" ry="0" width="1080" height="1080" />
</g>
<g transform="matrix(1 0 0 1 540 540)" id="ea9d8aa5-afb9-4616-9722-250031287685"  >
</g>
<g transform="matrix(NaN NaN NaN NaN 0 0)"  >
<g style=""   >
</g>
</g>
<g transform="matrix(1 0 0 1 540 540)"  >
<g style="" vector-effect="non-scaling-stroke"   >
		<g transform="matrix(1.56 0 0 1.56 0 -268.5)"  >
<path style="stroke: none; stroke-width: 1; stroke-dasharray: none; stroke-linecap: butt; stroke-dashoffset: 0; stroke-linejoin: miter; stroke-miterlimit: 4; fill: rgb(255,255,255); fill-rule: nonzero; opacity: 1;" vector-effect="non-scaling-stroke"  transform=" translate(-256, -84.16)" d="M 349.752 168.326 C 349.752 168.326 351.509 158.921 346.758 145.867 C 340.584 128.896 332.14 119.81799999999998 321.292 111.143 C 305.85999999999996 98.801 299.524 99.974 290.902 85.593 C 282.804 72.10300000000001 296.512 64.012 296.512 40.508 C 296.511 18.138 278.373 0 256.003 0 C 233.62699999999998 0 215.48899999999998 18.138 215.48899999999998 40.508 C 215.48899999999998 64.012 229.19699999999997 72.104 221.10499999999996 85.593 C 212.47499999999997 99.974 206.14099999999996 98.801 190.70799999999997 111.143 C 179.85999999999996 119.818 171.41599999999997 128.89600000000002 165.24199999999996 145.867 C 160.49799999999996 158.921 162.24799999999996 168.326 162.24799999999996 168.326 L 349.752 168.326 z" stroke-linecap="round" />
</g>
		<g transform="matrix(1.56 0 0 1.56 -78.19 76.85)"  >
<polygon style="stroke: none; stroke-width: 1; stroke-dasharray: none; stroke-linecap: butt; stroke-dashoffset: 0; stroke-linejoin: miter; stroke-miterlimit: 4; fill: rgb(255,255,255); fill-rule: nonzero; opacity: 1;" vector-effect="non-scaling-stroke"  points="-32.36,8.83 32.36,8.83 32.36,-8.83 -30.13,-8.83 " />
</g>
		<g transform="matrix(1.56 0 0 1.56 -82.83 150.39)"  >
<polygon style="stroke: none; stroke-width: 1; stroke-dasharray: none; stroke-linecap: butt; stroke-dashoffset: 0; stroke-linejoin: miter; stroke-miterlimit: 4; fill: rgb(255,255,255); fill-rule: nonzero; opacity: 1;" vector-effect="non-scaling-stroke"  points="-35.33,8.82 35.33,8.82 35.33,-8.82 -33.1,-8.82 " />
</g>
		<g transform="matrix(1.56 0 0 1.56 -87.48 223.94)"  >
<polygon style="stroke: none; stroke-width: 1; stroke-dasharray: none; stroke-linecap: butt; stroke-dashoffset: 0; stroke-linejoin: miter; stroke-miterlimit: 4; fill: rgb(255,255,255); fill-rule: nonzero; opacity: 1;" vector-effect="non-scaling-stroke"  points="-38.3,8.83 38.3,8.83 38.3,-8.83 -36.08,-8.83 " />
</g>
		<g transform="matrix(1.56 0 0 1.56 0 142.85)"  >
<path style="stroke: none; stroke-width: 1; stroke-dasharray: none; stroke-linecap: butt; stroke-dashoffset: 0; stroke-linejoin: miter; stroke-miterlimit: 4; fill: rgb(255,255,255); fill-rule: nonzero; opacity: 1;" vector-effect="non-scaling-stroke"  transform=" translate(-256, -347.43)" d="M 402.133 459.746 C 402.133 457.573 401.998 455.38 401.72299999999996 453.2 L 377.25699999999995 259.465 C 376.4359999999999 252.95699999999997 374.429 246.81499999999997 371.4669999999999 241.301 C 370.2169999999999 238.98 368.7869999999999 236.78099999999998 367.22299999999996 234.69699999999997 L 369.352 234.69699999999997 L 369.352 204.35799999999998 C 369.352 192.48399999999998 359.722 182.85399999999998 347.84799999999996 182.85399999999998 L 164.153 182.85399999999998 C 152.279 182.85399999999998 142.655 192.48399999999998 142.655 204.35799999999998 L 142.655 234.69699999999997 L 144.76500000000001 234.69699999999997 C 143.20700000000002 236.78099999999998 141.78300000000002 238.97999999999996 140.53900000000002 241.301 C 137.57700000000003 246.815 135.56400000000002 252.957 134.74300000000002 259.465 L 110.27700000000002 453.2 C 110.00100000000002 455.38 109.86700000000002 457.566 109.86700000000002 459.746 C 109.86700000000002 472.39599999999996 114.45800000000001 484.7 122.92700000000002 494.304 L 122.92700000000002 494.298 C 132.845 505.557 147.124 512 162.12 512 L 349.88 512 C 364.882 512 379.161 505.557 389.08 494.298 L 389.073 494.304 C 397.543 484.706 402.133 472.396 402.133 459.746 z M 370.108 477.577 L 370.108 477.58299999999997 C 364.992 483.385 357.619 486.71299999999997 349.88 486.71299999999997 L 162.12 486.71299999999997 C 154.382 486.71299999999997 147.00900000000001 483.385 141.892 477.58299999999997 L 141.892 477.577 C 137.525 472.627 135.153 466.274 135.153 459.747 C 135.153 458.619 135.22299999999998 457.497 135.36499999999998 456.369 L 159.831 262.634 C 160.26 259.242 161.292 256.101 162.81199999999998 253.26600000000002 C 165.094 249.00900000000001 168.505 245.43800000000002 172.60199999999998 242.95000000000002 C 176.712 240.46200000000002 181.46299999999997 239.04600000000002 186.58599999999998 239.04600000000002 L 325.414 239.04600000000002 C 328.83799999999997 239.04600000000002 332.082 239.674 335.08799999999997 240.835 C 339.59599999999995 242.567 343.56399999999996 245.496 346.54499999999996 249.25300000000001 C 349.527 253.01000000000002 351.527 257.54900000000004 352.16799999999995 262.634 L 376.63399999999996 456.369 C 376.775 457.497 376.84599999999995 458.625 376.84599999999995 459.747 C 376.847 466.274 374.475 472.627 370.108 477.577 z" stroke-linecap="round" />
</g>
</g>
</g>
</svg>