<?xml version="1.0" encoding="UTF-8" standalone="no" ?>
<!DOCTYPE svg PUBLIC "-//W3C//DTD SVG 1.1//EN" "http://www.w3.org/Graphics/SVG/1.1/DTD/svg11.dtd">
<svg xmlns="http://www.w3.org/2000/svg" xmlns:xlink="http://www.w3.org/1999/xlink" version="1.1" width="1080" height="1080" viewBox="0 0 1080 1080" xml:space="preserve">
<desc>Created with Fabric.js 5.2.4</desc>
<defs>
</defs>
<rect x="0" y="0" width="100%" height="100%" fill="transparent"></rect>
<g transform="matrix(1 0 0 1 540 540)" id="1d6230de-3bae-4940-b345-62ca872f5e12"  >
<rect style="stroke: none; stroke-width: 1; stroke-dasharray: none; stroke-linecap: butt; stroke-dashoffset: 0; stroke-linejoin: miter; stroke-miterlimit: 4; fill: rgb(255,255,255); fill-rule: nonzero; opacity: 1; visibility: hidden;" vector-effect="non-scaling-stroke"  x="-540" y="-540" rx="0" ry="0" width="1080" height="1080" />
</g>
<g transform="matrix(1 0 0 1 540 540)" id="7e71db59-725c-4089-bf61-671d6729fe3d"  >
</g>
<g transform="matrix(1 0 0 1 540 540)"  >
<g style="" vector-effect="non-scaling-stroke"   >
		<g transform="matrix(1 0 0 1 0 -165.92)"  >
<path style="stroke: none; stroke-width: 1; stroke-dasharray: none; stroke-linecap: butt; stroke-dashoffset: 0; stroke-linejoin: miter; stroke-miterlimit: 4; fill: rgb(255,255,255); fill-rule: nonzero; opacity: 1;" vector-effect="non-scaling-stroke"  transform=" translate(-248, -82.08)" d="M 248 96 C 283.544 96 326.12 103.792 326.544 103.864 L 349.75199999999995 108.152 L 333.928 90.64 C 332.656 89.224 302.032 56 248 56 C 193.96800000000002 56 163.344 89.22399999999999 162.064 90.64 L 146.23999999999998 108.16 L 169.44799999999998 103.872 C 169.88 103.792 212.456 96 248 96 z M 248 72 C 267.744 72 283.984 77.2 296.18399999999997 83.232 C 281.68 81.504 264.296 80 248 80 C 231.624 80 214.168 81.52 199.624 83.248 C 211.8 77.216 228.088 72 248 72 z" stroke-linecap="round" />
</g>
		<g transform="matrix(1 0 0 1 16 232)"  >
<rect style="stroke: none; stroke-width: 1; stroke-dasharray: none; stroke-linecap: butt; stroke-dashoffset: 0; stroke-linejoin: miter; stroke-miterlimit: 4; fill: rgb(255,255,255); fill-rule: nonzero; opacity: 1;" vector-effect="non-scaling-stroke"  x="-8" y="-16" rx="0" ry="0" width="16" height="32" />
</g>
		<g transform="matrix(1 0 0 1 0 0)"  >
<path style="stroke: none; stroke-width: 1; stroke-dasharray: none; stroke-linecap: butt; stroke-dashoffset: 0; stroke-linejoin: miter; stroke-miterlimit: 4; fill: rgb(255,255,255); fill-rule: nonzero; opacity: 1;" vector-effect="non-scaling-stroke"  transform=" translate(-248, -248)" d="M 452 400 C 450.648 400 449.32 400.08 448 400.2 L 448 339.96799999999996 C 448 324.544 435.456 312 420.032 312 C 416.28 312 412.632 312.736 409.18399999999997 314.184 L 383.496 325 C 377.864 322.664 372.192 320.728 366.568 319.48 L 304 305.584 L 304 296 L 392 296 L 392 112 C 392 83.672 370.856 60.192 343.528 56.504 C 340.49600000000004 32.519999999999996 323.088 12.527999999999999 299.12800000000004 6.535999999999994 C 281.776 2.192 263.904 0 246.032 0 L 238.99200000000002 0 C 228.69600000000003 0 218.27200000000002 0.744 208.02400000000003 2.192 C 148.72 10.672 104 62.24 104 122.152 L 104 296 L 192 296 L 192 305.584 L 129.44 319.48 C 123.816 320.728 118.144 322.66400000000004 112.512 325 L 86.824 314.184 C 83.368 312.736 79.72 312 75.968 312 C 60.544 312 48 324.544 48 339.968 L 48 400.2 C 46.68 400.08 45.352 400 44 400 C 19.744 400 0 419.744 0 444 L 0 496 L 16 496 L 16 444 C 16 428.56 28.560000000000002 416 44 416 C 59.44 416 72 428.56 72 444 L 72 496 L 88 496 L 88 444 C 88 426.944 78.224 412.16 64 404.856 L 64 339.96799999999996 C 64 333.36799999999994 69.368 327.99999999999994 75.968 327.99999999999994 C 77.57600000000001 327.99999999999994 79.13600000000001 328.31199999999995 80.616 328.9359999999999 L 224 389.312 L 224 496 L 240 496 L 240 392 L 256 392 L 256 448 L 272 448 L 272 389.312 L 415.384 328.93600000000004 C 416.856 328.312 418.42400000000004 328.00000000000006 420.03200000000004 328.00000000000006 C 426.63200000000006 328.00000000000006 432.00000000000006 333.36800000000005 432.00000000000006 339.9680000000001 L 432.00000000000006 404.8560000000001 C 417.77600000000007 412.1520000000001 408.00000000000006 426.94400000000013 408.00000000000006 444.0000000000001 L 408.00000000000006 496.0000000000001 L 424.00000000000006 496.0000000000001 L 424.00000000000006 444.0000000000001 C 424.00000000000006 428.5600000000001 436.56000000000006 416.0000000000001 452.00000000000006 416.0000000000001 C 467.44000000000005 416.0000000000001 480.00000000000006 428.5600000000001 480.00000000000006 444.0000000000001 L 480.00000000000006 496.0000000000001 L 496.00000000000006 496.0000000000001 L 496.00000000000006 444.0000000000001 C 496 419.744 476.256 400 452 400 z M 120 280 L 120 122.152 C 120 70.16 158.816 25.391999999999996 210.28 18.040000000000006 C 219.784 16.688000000000006 229.448 16.000000000000007 238.992 16.000000000000007 L 246.03199999999998 16.000000000000007 C 262.59999999999997 16.000000000000007 279.168 18.040000000000006 295.256 22.056000000000008 C 314.528 26.88 328 44.128 328 64 L 328 72 L 336 72 C 358.056 72 376 89.944 376 112 L 376 280 L 311.288 280 C 331.296 262.392 344 236.68 344 208 L 344 120 L 328 120 L 328 122.608 C 317.248 126.672 288.192 136 248 136 C 207.808 136 178.752 126.672 168 122.608 L 168 120 L 152 120 L 152 208 C 152 236.68 164.704 262.392 184.712 280 L 120 280 z M 168 208 L 168 139.632 C 182.672 144.6 210.76 152 248 152 C 285.24 152 313.328 144.6 328 139.632 L 328 208 C 328 252.112 292.112 288 248 288 C 203.88799999999998 288 168 252.112 168 208 z M 288 295.16 L 288 312 C 288 329.648 273.648 344 256 344 L 240 344 C 222.352 344 208 329.648 208 312 L 208 295.16 C 220.192 300.776 233.712 304 248 304 C 262.288 304 275.808 300.776 288 295.16 z M 155.136 338.856 C 154.576 339.984 154.168 341.176 153.696 342.344 L 135.264 334.584 L 160.024 329.08 L 155.136 338.856 z M 218.888 369.8 L 168.40800000000002 348.544 C 168.74400000000003 347.69599999999997 169.032 346.832 169.448 346.01599999999996 L 180.15200000000002 324.60799999999995 L 193 321.752 C 196.832 340.25600000000003 211.36 354.88 229.8 358.88800000000003 L 218.888 369.8 z M 235.312 376 L 248 363.312 L 260.688 376 L 235.312 376 z M 277.112 369.8 L 266.2 358.888 C 284.64 354.88 299.168 340.26399999999995 303 321.75199999999995 L 315.848 324.60799999999995 L 326.552 346.01599999999996 C 326.96000000000004 346.83199999999994 327.25600000000003 347.69599999999997 327.59200000000004 348.544 L 277.112 369.8 z M 342.304 342.344 C 341.832 341.176 341.43199999999996 339.992 340.864 338.856 L 335.976 329.08 L 360.736 334.584 L 342.304 342.344 z" stroke-linecap="round" />
</g>
</g>
</g>
</svg>